name C:\Users\antoi\Documents\MyRepositories\upper-imu-dc\Results\main_tracking\Case_75\kinematics.mot
datacolumns 43
datarows 13
range 1.18000000 1.42000000
endheader 
time	clav_prot	clav_elev	scapula_abduction	scapula_elevation	scapula_upward_rot	scapula_winging	plane_elv	shoulder_elv	axial_rot	TrapeziusScapula_M/activation	TrapeziusScapula_S/activation	TrapeziusScapula_I/activation	TrapeziusClavicle_S/activation	SerratusAnterior_I/activation	SerratusAnterior_M/activation	SerratusAnterior_S/activation	Rhomboideus_S/activation	Rhomboideus_I/activation	LevatorScapulae/activation	Coracobrachialis/activation	DeltoideusClavicle_A/activation	DeltoideusScapula_P/activation	DeltoideusScapula_M/activation	LatissimusDorsi_S/activation	LatissimusDorsi_M/activation	LatissimusDorsi_I/activation	PectoralisMajorClavicle_S/activation	PectoralisMajorThorax_I/activation	PectoralisMajorThorax_M/activation	TeresMajor/activation	Infraspinatus_I/activation	Infraspinatus_S/activation	PectoralisMinor/activation	TeresMinor/activation	Subscapularis_S/activation	Subscapularis_M/activation	Subscapularis_I/activation	Supraspinatus_P/activation	Supraspinatus_A/activation	TRIlong/activation	BIC_long/activation	BIC_brevis/activation	
          1.18000000	        -20.29702204	         -6.37695226	         -4.32179104	         -7.00767813	         19.15217559	          4.49674652	         52.29231971	         38.47065120	        -28.49881543	          0.02992764	          0.06648232	          0.01240067	          0.03660889	          0.07006364	          0.06878980	          0.01004951	          0.01855101	          0.01000000	          0.01953546	          0.05391348	          0.15396161	          0.01000000	          0.07704667	          0.01000000	          0.01000000	          0.01000000	          0.07220339	          0.01000000	          0.01000000	          0.01000000	          0.05288046	          0.01245907	          0.01000000	          0.01889028	          0.01000000	          0.01000000	          0.01000000	          0.03666268	          0.04563104	          0.01000000	          0.02519977	          0.13324486	
          1.20000000	        -20.20587855	         -6.17203481	         -3.62741709	         -7.05566568	         20.05858279	          4.19291254	         53.76783218	         39.54349970	        -29.52703029	          0.03038039	          0.06712353	          0.01242834	          0.03690717	          0.06974148	          0.06956613	          0.01000000	          0.01877573	          0.01000000	          0.01977525	          0.05011049	          0.14869135	          0.01000000	          0.07763262	          0.01000000	          0.01000000	          0.01000000	          0.06973625	          0.01000000	          0.01000000	          0.01000000	          0.05205287	          0.01234144	          0.01000000	          0.01898587	          0.01000000	          0.01000000	          0.01000000	          0.03549679	          0.04304589	          0.01000000	          0.02331509	          0.12946756	
          1.22000000	        -20.12339745	         -5.95713475	         -2.93902538	         -7.09483351	         20.97134497	          3.88541187	         55.09521068	         40.59385631	        -30.27711329	          0.03072551	          0.06742355	          0.01245921	          0.03708800	          0.06889149	          0.06996271	          0.01000000	          0.01902667	          0.01000000	          0.02005424	          0.04653670	          0.14261929	          0.01000000	          0.07771130	          0.01000000	          0.01000000	          0.01000000	          0.06706754	          0.01000000	          0.01000000	          0.01000000	          0.05128478	          0.01256168	          0.01000000	          0.01918805	          0.01000000	          0.01000000	          0.01000000	          0.03433783	          0.04057455	          0.01000000	          0.02173693	          0.12472897	
          1.24000000	        -20.04983387	         -5.73539040	         -2.26481458	         -7.12466884	         21.87770656	          3.57876588	         56.27263242	         41.61584472	        -30.78169717	          0.03092409	          0.06731398	          0.01245841	          0.03713024	          0.06749540	          0.06989300	          0.01000000	          0.01931296	          0.01000000	          0.02039278	          0.04321782	          0.13571092	          0.01000000	          0.07720317	          0.01000000	          0.01000000	          0.01000000	          0.06417311	          0.01000000	          0.01000000	          0.01000000	          0.05051831	          0.01305719	          0.01000000	          0.01951855	          0.01000000	          0.01000000	          0.01000000	          0.03317129	          0.03820809	          0.01000000	          0.02040194	          0.11910903	
          1.26000000	        -19.98440475	         -5.50953784	         -1.61211149	         -7.14432960	         22.76420351	          3.27727297	         57.29924433	         42.60174281	        -31.07331315	          0.03097398	          0.06680569	          0.01240100	          0.03703443	          0.06555501	          0.06932353	          0.01001315	          0.01963751	          0.01000000	          0.02080989	          0.04017154	          0.12802644	          0.01000000	          0.07606666	          0.01000000	          0.01000000	          0.01000000	          0.06103043	          0.01000000	          0.01000000	          0.01000000	          0.04973534	          0.01373779	          0.01000000	          0.01993699	          0.01000000	          0.01000000	          0.01000000	          0.03199034	          0.03595102	          0.01000000	          0.01928895	          0.11262523	
          1.28000000	        -19.92567859	         -5.28178646	         -0.98774258	         -7.15269267	         23.61714427	          2.98486893	         58.17597061	         43.54163744	        -31.18211325	          0.03089438	          0.06593882	          0.01227524	          0.03678710	          0.06308597	          0.06820421	          0.01015340	          0.02000503	          0.01000000	          0.02130625	          0.03737658	          0.11957793	          0.01000000	          0.07423759	          0.01000000	          0.01000000	          0.01000000	          0.05761618	          0.01000000	          0.01000000	          0.01000000	          0.04891001	          0.01452937	          0.01000000	          0.02040748	          0.01000000	          0.01000000	          0.01000000	          0.03078968	          0.03379916	          0.01000000	          0.01838516	          0.10523277	
          1.30000000	        -19.87202829	         -5.05425590	         -0.39831115	         -7.14882051	         24.42316674	          2.70522890	         58.90531404	         44.42286331	        -31.13600211	          0.03063389	          0.06460134	          0.01206808	          0.03635993	          0.06001755	          0.06647824	          0.01038671	          0.02040413	          0.01000000	          0.02189367	          0.03482811	          0.11042130	          0.01000000	          0.07155243	          0.01000000	          0.01000000	          0.01000000	          0.05393600	          0.01000000	          0.01000000	          0.01000000	          0.04791831	          0.01546198	          0.01000000	          0.02097308	          0.01000000	          0.01000000	          0.01000000	          0.02952615	          0.03166759	          0.01000000	          0.01766221	          0.09710211	
          1.32000000	        -19.82192175	         -4.82935695	          0.14963008	         -7.13229050	         25.16950781	          2.44190065	         59.49129666	         45.22938430	        -30.96243118	          0.03017659	          0.06274815	          0.01176432	          0.03572973	          0.05635492	          0.06409427	          0.01072638	          0.02083385	          0.01000000	          0.02256369	          0.03246316	          0.10064220	          0.01000000	          0.06791390	          0.01000000	          0.01000000	          0.01000000	          0.05000526	          0.01000000	          0.01000000	          0.01000000	          0.04678147	          0.01641245	          0.01000000	          0.02157657	          0.01000000	          0.01000000	          0.01000000	          0.02820596	          0.02957895	          0.01000000	          0.01707324	          0.08834443	
          1.34000000	        -19.77416335	         -4.61013475	          0.64918918	         -7.10338547	         25.84382501	          2.19852109	         59.93948873	         45.94177936	        -30.68954659	          0.02951485	          0.06032621	          0.01138925	          0.03489089	          0.05213356	          0.06107282	          0.01116345	          0.02125269	          0.01000000	          0.02327376	          0.03025188	          0.09036819	          0.01000000	          0.06334925	          0.01000000	          0.01000000	          0.01000000	          0.04589464	          0.01000000	          0.01000000	          0.01000000	          0.04552307	          0.01729114	          0.01000000	          0.02213950	          0.01000000	          0.01000000	          0.01000000	          0.02684725	          0.02756956	          0.01000000	          0.01652804	          0.07926804	
          1.36000000	        -19.72812636	         -4.40011533	          1.09235568	         -7.06282439	         26.43359613	          1.97892503	         60.25747600	         46.53811347	        -30.34633283	          0.02871269	          0.05756327	          0.01097724	          0.03387643	          0.04744303	          0.05749316	          0.01168190	          0.02166277	          0.01000000	          0.02399846	          0.02816884	          0.07984718	          0.01000000	          0.05798453	          0.01000000	          0.01000000	          0.01000000	          0.04164446	          0.01000000	          0.01000000	          0.01000000	          0.04407207	          0.01820771	          0.01000000	          0.02273156	          0.01000000	          0.01000000	          0.01000000	          0.02543045	          0.02555850	          0.01000000	          0.01615497	          0.06981225	
          1.38000000	        -19.68363488	         -4.20254721	          1.46862847	         -7.01073189	         26.92400445	          1.78730207	         60.45523778	         46.99660167	        -29.96101146	          0.02764425	          0.05397691	          0.01097363	          0.03259800	          0.04306142	          0.05365718	          0.01228919	          0.02175935	          0.01179729	          0.02427933	          0.02619831	          0.06922128	          0.01000000	          0.05185755	          0.01000000	          0.01000000	          0.01000000	          0.03741995	          0.01000000	          0.01000000	          0.01000000	          0.04238711	          0.01900655	          0.01000000	          0.02324653	          0.01000000	          0.01000000	          0.01000000	          0.02396548	          0.02357837	          0.01000000	          0.01575540	          0.06052547	
          1.40000000	        -19.64092684	         -4.02201766	          1.76594187	         -6.94793167	         27.29860433	          1.62872441	         60.54340396	         47.29503423	        -29.55903158	          0.02645661	          0.05003038	          0.01103012	          0.03116299	          0.03858647	          0.04942186	          0.01298004	          0.02177654	          0.01395580	          0.02446195	          0.02436608	          0.05895843	          0.01000000	          0.04534733	          0.01000000	          0.01000000	          0.01000000	          0.03335054	          0.01000000	          0.01000000	          0.01000000	          0.04057935	          0.01967861	          0.01000000	          0.02367599	          0.01000000	          0.01000000	          0.01000000	          0.02251003	          0.02167050	          0.01000000	          0.01543856	          0.05161483	
          1.42000000	        -19.60020015	         -3.86477001	          1.97239122	         -6.87629712	         27.54041327	          1.50900598	         60.53076880	         47.41117967	        -29.16051275	          0.02520001	          0.04587225	          0.01114051	          0.02963476	          0.03407563	          0.04494073	          0.01373604	          0.02177684	          0.01607685	          0.02463455	          0.02272614	          0.04935332	          0.01000000	          0.03878000	          0.01000000	          0.01000000	          0.01000000	          0.02961112	          0.01000000	          0.01000000	          0.01000000	          0.03866991	          0.02020571	          0.01000000	          0.02397277	          0.01000000	          0.01001543	          0.01000000	          0.02116001	          0.01994838	          0.01000000	          0.01513112	          0.04356638	
